<mxfile host="app.diagrams.net" modified="2023-12-07T00:27:08.856Z" agent="Mozilla/5.0 (Windows NT 10.0; Win64; x64) AppleWebKit/537.36 (KHTML, like Gecko) Chrome/119.0.0.0 Safari/537.36" version="22.1.5" etag="bZCoaZXUjm-iKqclfo6M" type="github">
  <diagram name="페이지-1" id="9LXpX4iqo3uZ0UuG3GeB">
    <mxGraphModel>
      <root>
        <mxCell id="0" />
        <mxCell id="1" parent="0" />
      </root>
    </mxGraphModel>
  </diagram>
</mxfile>
